<svg xmlns="http://www.w3.org/2000/svg" viewBox="0 0 1024 1024" width="1024" height="1024">
<circle cx="512" cy="512" r="491.52" fill="#fff"/><circle cx="512" cy="512" r="491.52" fill="none" stroke="#000" stroke-width="16.384"/><circle cx="512" cy="512" r="479.23199999999997" fill="none" stroke="#000" stroke-width="2.1504"/><path d="M719.36,512 A207.36,207.36 0 0,1 694.9407705532642,609.6260419630844" fill="none" stroke="#000" stroke-width="3.9424000000000006" stroke-linecap="round"/><path d="M658.6256621468425,658.6256621468425 A207.36,207.36 0 0,1 554.8682186294224,714.8804707987933" fill="none" stroke="#000" stroke-width="3.9424000000000006" stroke-linecap="round"/><path d="M365.3743378531575,658.6256621468425 A207.36,207.36 0 0,1 318.22193337314707,585.8121297237722" fill="none" stroke="#000" stroke-width="3.9424000000000006" stroke-linecap="round"/><path d="M304.64,512 A207.36,207.36 0 0,1 347.4311792536897,385.8442516641877" fill="none" stroke="#000" stroke-width="3.9424000000000006" stroke-linecap="round"/><path d="M365.3743378531575,365.3743378531575 A207.36,207.36 0 0,1 436.41761402867775,318.90553469640287" fill="none" stroke="#000" stroke-width="3.9424000000000006" stroke-linecap="round"/><path d="M511.99999999999994,304.64 A207.36,207.36 0 0,1 630.2810319766854,341.6833329514391" fill="none" stroke="#000" stroke-width="3.9424000000000006" stroke-linecap="round"/><path d="M658.6256621468425,365.3743378531575 A207.36,207.36 0 0,1 703.4899727332125,432.44021152219216" fill="none" stroke="#000" stroke-width="3.9424000000000006" stroke-linecap="round"/><circle cx="512" cy="512" r="292.4573055692098" fill="none" stroke="#000" stroke-width="3.703466666666667"/><path d="M849.9658344360732,512 A337.96583443607324,337.96583443607324 0 0,1 845.531849676065,566.5656530954594" fill="none" stroke="#000" stroke-width="3.4645333333333337" stroke-linecap="round"/><path d="M791.2404768051435,702.3829334780493 A337.96583443607324,337.96583443607324 0 0,1 762.2703122490668,739.1248028129598" fill="none" stroke="#000" stroke-width="3.4645333333333337" stroke-linecap="round"/><path d="M722.7182511475689,776.2323293606999 A337.96583443607324,337.96583443607324 0 0,1 670.9778387810119,810.2397559390597" fill="none" stroke="#000" stroke-width="3.4645333333333337" stroke-linecap="round"/><path d="M635.4727841537184,826.6035232151739 A337.96583443607324,337.96583443607324 0 0,1 560.3830085032258,846.4846629282845" fill="none" stroke="#000" stroke-width="3.4645333333333337" stroke-linecap="round"/><path d="M537.2562184364217,849.0208134171583 A337.96583443607324,337.96583443607324 0 0,1 459.4023464036738,845.8478576870491" fill="none" stroke="#000" stroke-width="3.4645333333333337" stroke-linecap="round"/><path d="M343.01708278196327,804.6869982328451 A337.96583443607324,337.96583443607324 0 0,1 287.8370254087164,764.9266021367836" fill="none" stroke="#000" stroke-width="3.4645333333333337" stroke-linecap="round"/><path d="M264.2535124521073,741.8751468814172 A337.96583443607324,337.96583443607324 0 0,1 233.67804232090543,703.7232200849639" fill="none" stroke="#000" stroke-width="3.4645333333333337" stroke-linecap="round"/><path d="M207.5033047584347,658.6378799391091 A337.96583443607324,337.96583443607324 0 0,1 191.99843870478958,620.7193911622896" fill="none" stroke="#000" stroke-width="3.4645333333333337" stroke-linecap="round"/><path d="M177.8089646987127,562.3711938544741 A337.96583443607324,337.96583443607324 0 0,1 175.62263877983622,479.2711731858484" fill="none" stroke="#000" stroke-width="3.4645333333333337" stroke-linecap="round"/><path d="M177.8089646987127,461.62880614552586 A337.96583443607324,337.96583443607324 0 0,1 192.0959483751468,402.9940230993065" fill="none" stroke="#000" stroke-width="3.4645333333333337" stroke-linecap="round"/><path d="M207.5033047584347,365.362120060891 A337.96583443607324,337.96583443607324 0 0,1 239.57627425368304,311.98445336282794" fill="none" stroke="#000" stroke-width="3.4645333333333337" stroke-linecap="round"/><path d="M343.0170827819635,219.3130017671549 A337.96583443607324,337.96583443607324 0 0,1 402.914538803244,192.12304334078345" fill="none" stroke="#000" stroke-width="3.4645333333333337" stroke-linecap="round"/><path d="M436.7955268759598,182.50767464445124 A337.96583443607324,337.96583443607324 0 0,1 505.4593660120354,174.09746175397447" fill="none" stroke="#000" stroke-width="3.4645333333333337" stroke-linecap="round"/><path d="M537.2562184364217,174.97918658284175 A337.96583443607324,337.96583443607324 0 0,1 619.8306234508186,191.69785843319903" fill="none" stroke="#000" stroke-width="3.4645333333333337" stroke-linecap="round"/><path d="M635.4727841537185,197.39647678482606 A337.96583443607324,337.96583443607324 0 0,1 673.3784441714947,215.052356461852" fill="none" stroke="#000" stroke-width="3.4645333333333337" stroke-linecap="round"/><path d="M722.7182511475688,247.7676706393001 A337.96583443607324,337.96583443607324 0 0,1 768.87350024068,292.3709715903368" fill="none" stroke="#000" stroke-width="3.4645333333333337" stroke-linecap="round"/><path d="M791.2404768051435,321.6170665219508 A337.96583443607324,337.96583443607324 0 0,1 824.7229655494907,383.8389604286725" fill="none" stroke="#000" stroke-width="3.4645333333333337" stroke-linecap="round"/><path d="M887.1603882835657,512 A375.1603882835657,375.1603882835657 0 0,1 885.1792992759742,550.5036041036234" fill="none" stroke="#000" stroke-width="3.2256000000000005" stroke-linecap="round"/><path d="M880.7725697497127,580.9355404509824 A375.1603882835657,375.1603882835657 0 0,1 869.2755159318282,626.453146102332" fill="none" stroke="#000" stroke-width="3.2256000000000005" stroke-linecap="round"/><path d="M789.2468723295199,764.7439192553891 A375.1603882835657,375.1603882835657 0 0,1 747.3251413841392,804.1769921975559" fill="none" stroke="#000" stroke-width="3.2256000000000005" stroke-linecap="round"/><path d="M679.2233746260042,847.8298079619599 A375.1603882835657,375.1603882835657 0 0,1 652.5700364022232,859.8295298029674" fill="none" stroke="#000" stroke-width="3.2256000000000005" stroke-linecap="round"/><path d="M546.61543356254,885.5600202060616 A375.1603882835657,375.1603882835657 0 0,1 486.399125188883,886.2858695515786" fill="none" stroke="#000" stroke-width="3.2256000000000005" stroke-linecap="round"/><path d="M477.3845664374601,885.5600202060616 A375.1603882835657,375.1603882835657 0 0,1 429.07748215523213,877.8813646133947" fill="none" stroke="#000" stroke-width="3.2256000000000005" stroke-linecap="round"/><path d="M344.7766253739958,847.8298079619599 A375.1603882835657,375.1603882835657 0 0,1 318.7386950526554,833.5515276703335" fill="none" stroke="#000" stroke-width="3.2256000000000005" stroke-linecap="round"/><path d="M285.9153558228328,811.3844528434292 A375.1603882835657,375.1603882835657 0 0,1 262.44542749175105,792.1211028774892" fill="none" stroke="#000" stroke-width="3.2256000000000005" stroke-linecap="round"/><path d="M162.17335635301976,647.5235637509745 A375.1603882835657,375.1603882835657 0 0,1 145.9203293430033,594.0426210499187" fill="none" stroke="#000" stroke-width="3.2256000000000005" stroke-linecap="round"/><path d="M143.22743025028728,580.9355404509826 A375.1603882835657,375.1603882835657 0 0,1 137.71281037977036,537.5815680376721" fill="none" stroke="#000" stroke-width="3.2256000000000005" stroke-linecap="round"/><path d="M143.22743025028728,443.06445954901756 A375.1603882835657,375.1603882835657 0 0,1 158.67796010896114,385.8696980725452" fill="none" stroke="#000" stroke-width="3.2256000000000005" stroke-linecap="round"/><path d="M193.0322092343369,314.5035053699739 A375.1603882835657,375.1603882835657 0 0,1 215.1466090248852,282.60213339341755" fill="none" stroke="#000" stroke-width="3.2256000000000005" stroke-linecap="round"/><path d="M234.75312767048007,259.2560807446109 A375.1603882835657,375.1603882835657 0 0,1 269.9426694172714,225.37556690289045" fill="none" stroke="#000" stroke-width="3.2256000000000005" stroke-linecap="round"/><path d="M285.9153558228327,212.61554715657093 A375.1603882835657,375.1603882835657 0 0,1 324.6374590467584,186.97600829381742" fill="none" stroke="#000" stroke-width="3.2256000000000005" stroke-linecap="round"/><path d="M344.77662537399584,176.1701920380401 A375.1603882835657,375.1603882835657 0 0,1 397.466147530355,154.75034838990064" fill="none" stroke="#000" stroke-width="3.2256000000000005" stroke-linecap="round"/><path d="M409.3324863857157,151.16111824619492 A375.1603882835657,375.1603882835657 0 0,1 440.8148156370778,143.65507134712368" fill="none" stroke="#000" stroke-width="3.2256000000000005" stroke-linecap="round"/><path d="M477.38456643746,138.4399797939384 A375.1603882835657,375.1603882835657 0 0,1 525.7450330996143,137.0914898242956" fill="none" stroke="#000" stroke-width="3.2256000000000005" stroke-linecap="round"/><path d="M546.6154335625398,138.4399797939384 A375.1603882835657,375.1603882835657 0 0,1 577.5812178641048,142.61616061265408" fill="none" stroke="#000" stroke-width="3.2256000000000005" stroke-linecap="round"/><path d="M614.6675136142842,151.16111824619492 A375.1603882835657,375.1603882835657 0 0,1 654.2818169608702,164.86717023682536" fill="none" stroke="#000" stroke-width="3.2256000000000005" stroke-linecap="round"/><path d="M679.2233746260043,176.17019203804023 A375.1603882835657,375.1603882835657 0 0,1 716.1774200572853,197.26694155868114" fill="none" stroke="#000" stroke-width="3.2256000000000005" stroke-linecap="round"/><path d="M738.0846441771672,212.6155471565708 A375.1603882835657,375.1603882835657 0 0,1 779.176185780959,248.63295063995912" fill="none" stroke="#000" stroke-width="3.2256000000000005" stroke-linecap="round"/><path d="M789.2468723295199,259.2560807446109 A375.1603882835657,375.1603882835657 0 0,1 815.8634179636609,291.97195596806927" fill="none" stroke="#000" stroke-width="3.2256000000000005" stroke-linecap="round"/><path d="M880.7725697497127,443.0644595490176 A375.1603882835657,375.1603882835657 0 0,1 886.6475208226393,492.39000054753126" fill="none" stroke="#000" stroke-width="3.2256000000000005" stroke-linecap="round"/><circle cx="512" cy="512" r="407.8115169386858" fill="none" stroke="#000" stroke-width="2.9866666666666672"/><path d="M949.4528,512 A437.45279999999997,437.45279999999997 0 0,1 905.019569121589,704.0952121093089" fill="none" stroke="#000" stroke-width="2.7477333333333336" stroke-linecap="round"/><path d="M821.3258413290425,821.3258413290425 A437.45279999999997,437.45279999999997 0 0,1 629.943256443406,933.2532973014751" fill="none" stroke="#000" stroke-width="2.7477333333333336" stroke-linecap="round"/><path d="M512,949.4528 A437.45279999999997,437.45279999999997 0 0,1 323.34159275942625,906.6808300453542" fill="none" stroke="#000" stroke-width="2.7477333333333336" stroke-linecap="round"/><path d="M74.54720000000003,512 A437.45279999999997,437.45279999999997 0 0,1 104.43552638880158,353.0781573292497" fill="none" stroke="#000" stroke-width="2.7477333333333336" stroke-linecap="round"/><path d="M202.6741586709574,202.67415867095752 A437.45279999999997,437.45279999999997 0 0,1 320.30265131823944,118.7862175149204" fill="none" stroke="#000" stroke-width="2.7477333333333336" stroke-linecap="round"/><path d="M511.99999999999994,74.54720000000003 A437.45279999999997,437.45279999999997 0 0,1 780.5941004252161,166.71437700852812" fill="none" stroke="#000" stroke-width="2.7477333333333336" stroke-linecap="round"/><path d="M821.3258413290424,202.6741586709574 A437.45279999999997,437.45279999999997 0 0,1 905.9474593795485,321.81495464616864" fill="none" stroke="#000" stroke-width="2.7477333333333336" stroke-linecap="round"/><circle cx="742.4" cy="512" r="3.8912" fill="#000"/><polygon points="674.7515521677233,721.2420415417233 677.3950802983106,725.7998486634256 672.1080240371359,725.7998486634256" fill="#000"/><rect x="435.51690325493786" y="782.1030745332494" width="6.106095455727446" height="6.106095455727446" fill="none" stroke="#000" stroke-width="2.5088"/><circle cx="438.5699509828016" cy="785.1561222611131" r="1.2212190911454892" fill="#000"/><rect x="238.00034697863043" y="618.9286734650309" width="3.2964252016515467" height="10.988084005505156" fill="#000" transform="rotate(1282.6610375707255,239.64855957945622,624.4227154677835)"/><polygon points="248.47328362518363,353.96071083823006 251.66538590062905,359.28088129730577 248.47328362518363,364.6010517563815 245.2811813497382,359.28088129730577" fill="#000"/><rect x="467.3578849779962" y="199.73024865517814" width="8.750012521305399" height="3.0625043824568894" fill="#000" transform="rotate(2062.768395951209,471.7328912386489,201.2615008464066)"/><rect x="736.796724574024" y="282.4783688667627" width="5.833058576475183" height="5.833058576475183" fill="#000" transform="rotate(0.32207514145102323,739.7132538622616,285.3948981550003)"/><circle cx="837.597981775143" cy="555.8087479324516" r="5.6477485326553385" fill="none" stroke="#000" stroke-width="2.5088"/><circle cx="678.7084680430833" cy="802.9285052838288" r="2.4128601635692166" fill="#000"/><line x1="374.9577064617909" y1="827.1825222028034" x2="385.23039520394894" y2="827.1825222028034" stroke="#000" stroke-width="2.5088" stroke-linecap="round" transform="rotate(3712.9831127121765,380.0940508328699,827.1825222028034)"/><circle cx="380.0940508328699" cy="827.1825222028034" r="1.284086092769753" fill="#000"/><circle cx="175.79407100815934" cy="600.6228039153216" r="4.645521454340717" fill="#000"/><line x1="232.58196714815296" y1="290.061778859394" x2="232.58196714815296" y2="301.14416107184985" stroke="#000" stroke-width="3.01056" transform="rotate(4538.09047109266,232.58196714815296,295.6029699656219)" stroke-linecap="round"/><circle cx="513.750740015198" cy="153.11936791220893" r="5.77498054662871" fill="none" stroke="#000" stroke-width="1.50528"/><line x1="510.5424174892931" y1="153.11936791220893" x2="516.9590625411028" y2="153.11936791220893" stroke="#000" stroke-width="1.7561599999999997"/><circle cx="802.0522460704298" cy="291.86068635339757" r="5.893953069100941" fill="none" stroke="#000" stroke-width="2.5088"/><circle cx="868.0504831824611" cy="609.5786760339035" r="4.99133269997294" fill="none" stroke="#000" stroke-width="2.5088"/><circle cx="653.0329889247225" cy="858.4440265907249" r="2.1499754340319632" fill="#000"/><line x1="313.99197698327987" y1="838.7784178726592" x2="326.98737275250016" y2="838.7784178726592" stroke="#000" stroke-width="2.5088" stroke-linecap="round" transform="rotate(6600.858867043869,320.48967486789,838.7784178726592)"/><circle cx="320.48967486789" cy="838.7784178726592" r="1.6244244711525364" fill="#000"/><circle cx="131.61509390854206" cy="559.4066382776454" r="6.539329578161563" fill="#000"/><circle cx="239.82509076748119" cy="235.81240684284057" r="5.533062258010182" fill="none" stroke="#000" stroke-width="2.5088" stroke-dasharray="5.533062258010182 2.766531129005091"/><circle cx="566.1767312678684" cy="123.68782326170083" r="4.777972179293733" fill="none" stroke="#000" stroke-width="1.50528"/><line x1="563.5223022793718" y1="123.68782326170083" x2="568.8311602563649" y2="123.68782326170083" stroke="#000" stroke-width="1.7561599999999997"/><circle cx="856.7823291017858" cy="316.66011551527674" r="6.350666377895065" fill="none" stroke="#000" stroke-width="2.5088"/><circle cx="880.5717715785402" cy="668.3669573929573" r="6.965451003706785" fill="none" stroke="#000" stroke-width="2.5088"/><circle cx="821.9268452871142" cy="640.3759026614307" r="26.214399999999998" fill="none" stroke="#000" stroke-width="7.168"/><circle cx="821.9268452871142" cy="640.3759026614307" r="10.485759999999999" fill="#000"/><polygon points="640.3759026614307,790.4695652871143 666.5903026614307,840.2769252871143 614.1615026614307,840.2769252871143" fill="none" stroke="#000" stroke-width="6.4512"/><rect x="357.4096973385693" y="795.7124452871143" width="52.428799999999995" height="52.428799999999995" fill="none" stroke="#000" stroke-width="7.168"/><polygon points="202.08092274190415,614.1615038123683 208.23803797475884,631.8938405804815 227.00501070047176,632.2766851452585 212.04589710792013,643.6155896678996 217.48536286756857,661.5810578638037 202.07626192449308,650.8616622010557 186.67351657549858,661.5901882397275 192.10233408127743,643.621499480183 177.1365030737561,632.2914625207223 195.90324560943716,631.8974957100758 " fill="#000"/><line x1="175.85875471288568" y1="383.6240973385693" x2="228.2875547128857" y2="383.6240973385693" stroke="#000" stroke-width="8.96" stroke-linecap="round"/><line x1="202.0731547128857" y1="357.4096973385693" x2="202.0731547128857" y2="409.8384973385693" stroke="#000" stroke-width="8.96" stroke-linecap="round"/><polygon points="406.3277282443068,188.9681972136784 406.3277282443068,215.17811221209323 383.6318653675876,228.28755356194824 360.92823711967475,215.1915652981819 360.9127037203721,188.98165490272964 383.6007932542422,175.85876507132343 " fill="none" stroke="#000" stroke-width="6.4512"/><polygon points="640.3759026614307,167.99443471288575 666.5903026614307,202.07315471288575 640.3759026614307,236.15187471288576 614.1615026614307,202.07315471288575" fill="#000"/><circle cx="821.9268452871142" cy="383.6240973385691" r="26.214399999999998" fill="#000" opacity=".7"/><circle cx="821.9268452871142" cy="383.6240973385691" r="13.107199999999999" fill="#fff"/><path d="M929.7919999999999,512 A417.792,417.792 0 0,1 919.0262123962455,606.2327845623084" fill="none" stroke="#000" stroke-width="13.312" stroke-linecap="round"/><path d="M911.2306736750033,635.1463538274804 A417.792,417.792 0 0,1 865.8430190337292,734.1379597121932" fill="none" stroke="#000" stroke-width="13.312" stroke-linecap="round"/><path d="M857.1959499990281,747.3506136985168 A417.792,417.792 0 0,1 802.5541412996048,812.2140007355574" fill="none" stroke="#000" stroke-width="13.312" stroke-linecap="round"/><path d="M543.2216352596594,928.6237688319195 A417.792,417.792 0 0,1 446.86519279330287,924.6834284947075" fill="none" stroke="#000" stroke-width="13.312" stroke-linecap="round"/><path d="M303.10400000000004,873.8184854979081 A417.792,417.792 0 0,1 217.09496656405094,807.9411707048239" fill="none" stroke="#000" stroke-width="13.312" stroke-linecap="round"/><path d="M205.73679236447333,796.1707284587881 A417.792,417.792 0 0,1 155.5870798745982,729.9907925387765" fill="none" stroke="#000" stroke-width="13.312" stroke-linecap="round"/><path d="M98.87439144975116,574.2686664702763 A417.792,417.792 0 0,1 96.60315848880333,467.32764471709885" fill="none" stroke="#000" stroke-width="13.312" stroke-linecap="round"/><path d="M98.87439144975116,449.7313335297237 A417.792,417.792 0 0,1 128.3431201283899,346.59880958354347" fill="none" stroke="#000" stroke-width="13.312" stroke-linecap="round"/><path d="M135.5824147413125,330.7268448665972 A417.792,417.792 0 0,1 197.18773064850035,237.33039787818018" fill="none" stroke="#000" stroke-width="13.312" stroke-linecap="round"/><path d="M205.73679236447327,227.82927154121205 A417.792,417.792 0 0,1 276.1613459861945,167.1372961061801" fill="none" stroke="#000" stroke-width="13.312" stroke-linecap="round"/><path d="M419.03253396052344,104.68291771373157 A417.792,417.792 0 0,1 523.3666555504951,94.36265204654364" fill="none" stroke="#000" stroke-width="13.312" stroke-linecap="round"/><path d="M664.6365572520847,123.08839480644053 A417.792,417.792 0 0,1 753.6064041598352,171.15325917216927" fill="none" stroke="#000" stroke-width="13.312" stroke-linecap="round"/><path d="M772.489051298164,185.35706127671688 A417.792,417.792 0 0,1 846.9274192876468,262.25256943600635" fill="none" stroke="#000" stroke-width="13.312" stroke-linecap="round"/><circle cx="293.88800000000003" cy="293.88800000000003" r="40.550399999999996" fill="none" stroke="#000" stroke-width="4.096"/><circle cx="293.88800000000003" cy="293.88800000000003" r="22.528" fill="none" stroke="#000" stroke-width="4.096"/><circle cx="293.88800000000003" cy="293.88800000000003" r="6.758399999999999" fill="#000"/><polygon points="730.112,257.8432 761.6512,316.41600000000005 698.5727999999999,316.41600000000005" fill="#000"/><rect x="696.3199999999999" y="696.3199999999999" width="67.584" height="67.584" fill="none" stroke="#000" stroke-width="4.096"/><rect x="715.4688" y="715.4688" width="29.2864" height="29.2864" fill="#000"/><line x1="262.34880000000004" y1="730.112" x2="325.4272" y2="730.112" stroke="#000" stroke-width="10.24" stroke-linecap="round"/><line x1="293.88800000000003" y1="698.5727999999999" x2="293.88800000000003" y2="761.6512" stroke="#000" stroke-width="10.24" stroke-linecap="round"/><polygon points="512,43.00800000000002 495.616,75.77600000000001 528.384,75.77600000000001" fill="#000"/><circle cx="512" cy="512" r="153.6" fill="#fff"/><circle cx="512" cy="512" r="153.6" fill="none" stroke="#000" stroke-width="4.6592"/><circle cx="512" cy="512" r="122.88" fill="none" stroke="#000" stroke-width="1.6128" stroke-dasharray="6.144 4.096"/><polygon points="575.8539619223873,475.14230703347914 575.8539619223873,548.8576929665209 512.0218475816145,585.727996762988 448.1678931343596,548.8955297711452 448.1242054488209,475.1801567839358 511.9344572628305,438.2720291331058" fill="none" stroke="#000" stroke-width="3.9424000000000006"/><circle cx="512" cy="512" r="22.118399999999998" fill="#000"/>
</svg>